<svg width="480" height="480" viewBox="0 0 480 480" fill="none" xmlns="http://www.w3.org/2000/svg">
<path d="M382.337 428.589C374.492 436.434 370.57 440.356 365.477 441.759C360.384 443.163 355.007 441.804 344.251 439.085L309.05 430.188C298.294 427.47 292.916 426.111 287.823 427.514C282.73 428.918 278.808 432.84 270.964 440.684L245.673 465.975C237.8 473.848 233.864 477.785 228.752 479.185C223.64 480.584 218.247 479.203 207.461 476.44L147.204 461.002C135.98 458.126 130.367 456.688 126.489 452.797C122.61 448.905 121.19 443.288 118.351 432.055L109.993 398.986C107.143 387.713 105.719 382.076 101.821 378.179C97.9238 374.281 92.2872 372.857 81.0139 370.007L47.9451 361.649C36.7115 358.81 31.0947 357.39 27.2032 353.511C23.3118 349.633 21.874 344.02 18.9983 332.796L3.56047 272.539C0.797209 261.753 -0.584426 256.36 0.81547 251.248C2.21536 246.136 6.15182 242.2 14.0247 234.327L39.3155 209.036C47.16 201.192 51.0823 197.269 52.4858 192.177C53.8894 187.084 52.5302 181.706 49.8117 170.95L40.9147 135.749C38.1963 124.993 36.837 119.616 38.2406 114.523C39.6442 109.43 43.5664 105.508 51.4109 97.663L97.663 51.411C105.507 43.5665 109.43 39.6442 114.523 38.2407C119.616 36.8371 124.993 38.1963 135.749 40.9148L170.95 49.8118C181.706 52.5302 187.084 53.8895 192.177 52.4859C197.269 51.0823 201.192 47.1601 209.036 39.3156L234.327 14.0248C242.2 6.15188 246.136 2.21543 251.248 0.815536C256.36 -0.58436 261.753 0.797274 272.539 3.56052L332.796 18.9984C344.02 21.874 349.633 23.3119 353.511 27.2033C357.39 31.0948 358.81 36.7116 361.649 47.9452L370.007 81.014C372.856 92.2873 374.281 97.9239 378.179 101.821C382.076 105.719 387.713 107.144 398.986 109.993L432.055 118.351C443.288 121.19 448.905 122.61 452.797 126.489C456.688 130.367 458.126 135.98 461.002 147.204L476.439 207.461C479.203 218.247 480.584 223.64 479.184 228.752C477.785 233.864 473.848 237.8 465.975 245.673L440.684 270.964C432.84 278.808 428.918 282.731 427.514 287.823C426.11 292.916 427.47 298.294 430.188 309.05L439.085 344.251C441.804 355.007 443.163 360.384 441.759 365.477C440.356 370.57 436.433 374.492 428.589 382.337L382.337 428.589ZM270.163 148.997C280.949 151.76 286.342 153.142 291.453 151.742C296.565 150.342 300.502 146.406 308.375 138.533L313.391 133.516C321.35 125.557 325.329 121.578 326.718 116.409C328.106 111.239 326.656 105.801 323.756 94.9257L321.732 87.3336C318.82 76.4146 317.364 70.9551 313.565 67.1567C309.767 63.3582 304.308 61.9024 293.389 58.9907L285.797 56.9661C274.921 54.0659 269.483 52.6158 264.314 54.0043C259.144 55.3927 255.165 59.3722 247.206 67.3312L242.189 72.3475C234.317 80.2204 230.38 84.1568 228.98 89.2687C227.58 94.3806 228.962 99.7734 231.725 110.559L233.686 118.214C236.552 129.399 237.985 134.992 241.858 138.865C245.73 142.737 251.323 144.17 262.508 147.036L270.163 148.997ZM232.716 285.722C243.502 288.485 248.895 289.867 254.007 288.467C259.118 287.067 263.055 283.13 270.928 275.257L275.257 270.928C283.13 263.055 287.067 259.118 288.467 254.007C289.866 248.895 288.485 243.502 285.722 232.716L283.76 225.061C280.895 213.876 279.462 208.284 275.589 204.411C271.716 200.538 266.124 199.105 254.939 196.24L247.284 194.278C236.498 191.515 231.105 190.134 225.993 191.533C220.881 192.933 216.945 196.87 209.072 204.743L204.743 209.072C196.87 216.945 192.933 220.882 191.533 225.993C190.133 231.105 191.515 236.498 194.278 247.284L196.24 254.939C199.105 266.124 200.538 271.716 204.411 275.589C208.284 279.462 213.876 280.895 225.061 283.76L232.716 285.722ZM133.523 186.564C144.269 189.269 149.643 190.622 154.73 189.217C159.817 187.812 163.735 183.894 171.571 176.058L176.058 171.571C183.894 163.735 187.812 159.817 189.217 154.73C190.622 149.643 189.269 144.269 186.564 133.523L184.472 125.214C181.624 113.898 180.199 108.24 176.287 104.333C172.375 100.426 166.715 99.0092 155.395 96.1758L148.33 94.4074C137.596 91.7204 132.229 90.377 127.149 91.7831C122.07 93.1892 118.158 97.1015 110.333 104.926L104.926 110.333C97.1014 118.158 93.1892 122.07 91.7831 127.149C90.3769 132.229 91.7204 137.596 94.4073 148.33L96.1757 155.395C99.0092 166.715 100.426 172.375 104.333 176.287C108.24 180.2 113.898 181.624 125.214 184.472L133.523 186.564ZM95.5561 323.604C106.342 326.367 111.735 327.749 116.846 326.349C121.958 324.949 125.895 321.013 133.768 313.14L138.533 308.375C146.406 300.502 150.342 296.565 151.742 291.453C153.142 286.342 151.76 280.949 148.997 270.163L147.036 262.508C144.17 251.323 142.737 245.731 138.864 241.858C134.992 237.985 129.399 236.552 118.214 233.687L110.559 231.725C99.7734 228.962 94.3806 227.58 89.2687 228.98C84.1568 230.38 80.2203 234.317 72.3474 242.19L67.5825 246.954C59.7096 254.827 55.7731 258.764 54.3732 263.876C52.9733 268.988 54.355 274.38 57.1182 285.166L59.0795 292.821C61.9451 304.006 63.3778 309.599 67.2506 313.472C71.1235 317.344 76.7159 318.777 87.9007 321.643L95.5561 323.604ZM194.834 422.882C205.62 425.645 211.012 427.027 216.124 425.627C221.236 424.227 225.173 420.29 233.045 412.417L237.81 407.653C245.683 399.78 249.62 395.843 251.02 390.731C252.42 385.619 251.038 380.227 248.275 369.441L246.313 361.786C243.448 350.601 242.015 345.008 238.142 341.135C234.269 337.263 228.677 335.83 217.492 332.964L209.837 331.003C199.051 328.24 193.658 326.858 188.546 328.258C183.435 329.658 179.498 333.594 171.625 341.467L166.609 346.484C158.65 354.443 154.67 358.422 153.282 363.591C151.894 368.761 153.344 374.199 156.244 385.074L158.201 392.413C161.144 403.45 162.616 408.969 166.47 412.786C170.324 416.602 175.857 418.02 186.923 420.855L194.834 422.882ZM331.67 385.593C342.404 388.28 347.771 389.623 352.85 388.217C357.93 386.811 361.842 382.899 369.667 375.074L375.074 369.667C382.898 361.842 386.811 357.93 388.217 352.851C389.623 347.771 388.28 342.404 385.593 331.67L383.824 324.605C380.991 313.285 379.574 307.625 375.667 303.713C371.76 299.801 366.102 298.376 354.786 295.528L346.477 293.436C335.731 290.731 330.357 289.378 325.27 290.783C320.183 292.188 316.265 296.106 308.428 303.942L303.942 308.429C296.106 316.265 292.188 320.183 290.783 325.27C289.378 330.357 290.731 335.731 293.436 346.477L295.528 354.786C298.376 366.102 299.8 371.76 303.713 375.667C307.625 379.574 313.285 380.991 324.605 383.824L331.67 385.593ZM369.441 248.275C380.227 251.038 385.619 252.42 390.731 251.02C395.843 249.62 399.78 245.683 407.652 237.81L412.417 233.046C420.29 225.173 424.227 221.236 425.627 216.124C427.027 211.012 425.645 205.62 422.882 194.834L420.92 187.179C418.055 175.994 416.622 170.401 412.749 166.529C408.876 162.656 403.284 161.223 392.099 158.357L384.444 156.396C373.658 153.633 368.265 152.251 363.153 153.651C358.042 155.051 354.105 158.987 346.232 166.86L341.467 171.625C333.594 179.498 329.658 183.435 328.258 188.547C326.858 193.658 328.24 199.051 331.003 209.837L332.964 217.492C335.83 228.677 337.263 234.269 341.135 238.142C345.008 242.015 350.601 243.448 361.786 246.313L369.441 248.275Z" fill="white"/>
</svg>
